<?xml version="1.0" standalone="no"?>
<!DOCTYPE svg PUBLIC "-//W3C//DTD SVG 20010904//EN"
 "http://www.w3.org/TR/2001/REC-SVG-20010904/DTD/svg10.dtd">
<svg version="1.0" xmlns="http://www.w3.org/2000/svg"
 width="16.000000pt" height="16.000000pt" viewBox="0 0 16.000000 16.000000"
 preserveAspectRatio="xMidYMid meet">
<metadata>
Created by potrace 1.11, written by Peter Selinger 2001-2013
</metadata>
<g transform="translate(0.000000,16.000000) scale(0.002286,-0.002286)"
fill="#000000" stroke="none">
<path d="M3315 6704 c-22 -2 -89 -9 -149 -14 -596 -58 -1182 -299 -1671 -686
-141 -112 -387 -358 -499 -499 -387 -488 -611 -1032 -688 -1670 -15 -129 -15
-541 0 -670 77 -638 301 -1182 688 -1670 112 -141 358 -387 499 -499 1188
-941 2840 -939 4018 6 131 105 380 354 485 485 945 1178 947 2831 6 4018 -112
141 -358 387 -499 499 -485 384 -1040 614 -1660 686 -95 11 -462 21 -530 14z
m1162 -1546 l983 -983 0 -1177 0 -1178 -785 0 -785 0 0 785 0 785 -400 0 -400
0 0 -785 0 -785 -785 0 -785 0 0 1177 0 1178 982 982 c541 541 985 983 988
983 3 0 447 -442 987 -982z"/>
</g>
</svg>
